<svg width="28" height="28" viewBox="0 0 28 28" fill="none" xmlns="http://www.w3.org/2000/svg">
<path d="M19.0001 0.666016H9.00008C4.39841 0.666016 0.666748 4.39768 0.666748 8.99935V18.9993C0.666748 23.601 4.39841 27.3327 9.00008 27.3327H19.0001C23.6017 27.3327 27.3334 23.601 27.3334 18.9993V8.99935C27.3334 4.39768 23.6017 0.666016 19.0001 0.666016ZM24.8334 18.9993C24.8334 22.216 22.2167 24.8327 19.0001 24.8327H9.00008C5.78341 24.8327 3.16675 22.216 3.16675 18.9993V8.99935C3.16675 5.78268 5.78341 3.16602 9.00008 3.16602H19.0001C22.2167 3.16602 24.8334 5.78268 24.8334 8.99935V18.9993Z" fill="#FCFCFC"/>
<path d="M13.9999 7.33203C10.3183 7.33203 7.33325 10.317 7.33325 13.9987C7.33325 17.6804 10.3183 20.6654 13.9999 20.6654C17.6816 20.6654 20.6666 17.6804 20.6666 13.9987C20.6666 10.317 17.6816 7.33203 13.9999 7.33203ZM13.9999 18.1654C11.7033 18.1654 9.83325 16.2954 9.83325 13.9987C9.83325 11.7004 11.7033 9.83203 13.9999 9.83203C16.2966 9.83203 18.1666 11.7004 18.1666 13.9987C18.1666 16.2954 16.2966 18.1654 13.9999 18.1654Z" fill="#FCFCFC"/>
<path d="M21.1667 7.72198C21.6573 7.72198 22.055 7.32426 22.055 6.83365C22.055 6.34303 21.6573 5.94531 21.1667 5.94531C20.676 5.94531 20.2783 6.34303 20.2783 6.83365C20.2783 7.32426 20.676 7.72198 21.1667 7.72198Z" fill="#FCFCFC"/>
</svg>
