<svg width="111" height="42" viewBox="0 0 111 42" fill="none" xmlns="http://www.w3.org/2000/svg">
<g clip-path="url(#clip0_2777_114)">
<path fill-rule="evenodd" clip-rule="evenodd" d="M61.8093 6.30306L61.8144 10.8074L66.5874 10.8023C66.933 21.0483 66.4234 31.8099 66.7539 41.5026L78.5653 41.5931C85.9342 41.5931 88.5402 37.9816 88.5402 30.7863L88.5376 11.421C88.5376 -0.447119 80.147 1.00905 70.0511 1.09204L68.9083 1.10965C67.3391 4.45959 66.7286 6.27791 61.8093 6.30306ZM75.3135 35.7634C79.2565 36.1055 82.0517 36.2488 82.2031 32.0589L82.2081 10.9105C82.1022 6.39611 79.5315 6.59228 75.3387 6.9318L75.3135 35.7634Z" fill="white"/>
<path fill-rule="evenodd" clip-rule="evenodd" d="M31.799 0.948011C21.5845 2.58023 23.7843 12.1522 23.7843 22.9892C23.7843 30.436 21.7611 43.3856 35.1845 41.859C45.341 40.7021 43.0655 28.5674 43.0655 19.7197C43.0655 15.5122 43.5827 9.03364 42.0287 5.59567C40.5378 2.29603 36.5468 0.18849 31.799 0.948011ZM30.1315 11.9233V30.2826C30.1315 33.2327 30.1542 36.1148 33.1664 36.2356C37.1573 36.3965 36.7562 32.4128 36.7562 29.0251L36.7587 11.1688C36.7587 8.4552 36.0372 6.43819 33.1563 6.58909C30.2703 6.73747 30.1315 9.22981 30.1315 11.9233Z" fill="white"/>
<path fill-rule="evenodd" clip-rule="evenodd" d="M20.3029 26.2365L14.2508 26.2038C14.1979 28.1604 14.4602 31.9957 14.049 33.633C13.5419 35.6424 11.2362 36.8345 9.10195 35.6525C7.25027 34.6289 7.51515 31.9052 7.51515 29.5286C7.51768 25.228 7.00808 8.8731 8.18368 7.14531C9.32899 5.46531 12.3992 5.42759 13.5218 7.10256C14.5737 8.6719 14.2483 12.1501 14.2231 14.2576L20.3079 14.3079C20.2726 10.0149 20.318 5.59609 18.0274 2.8598C15.0959 -0.641038 2.89099 -2.75613 1.24365 7.95513C0.713881 11.4006 1.09481 17.9647 1.09481 21.7321C1.09481 30.4314 -0.519732 40.2826 8.50659 41.7513C13.0979 42.4982 16.9325 40.9692 18.5571 38.3662C20.7418 34.8678 20.3306 30.7559 20.3029 26.2365Z" fill="white"/>
<path fill-rule="evenodd" clip-rule="evenodd" d="M92.6067 41.5884L110.008 41.5909L110.026 35.9021L99.0472 35.8115L99.022 23.971L107.685 23.8931L107.766 18.2646L99.0674 18.1589L99.022 6.92458L109.991 6.86925L110.039 1.15523L92.6319 1.08984L92.6067 41.5884Z" fill="white"/>
<path fill-rule="evenodd" clip-rule="evenodd" d="M47.0994 41.4929L53.2599 41.6186L53.381 35.3689L47.1523 35.3262L47.0994 41.4929Z" fill="#6C6C6A"/>
<path fill-rule="evenodd" clip-rule="evenodd" d="M47.3717 41.4154L53.2067 41.3928L53.1563 35.5605L47.3464 35.5681L47.3717 41.4154Z" fill="#020202"/>
</g>
<defs>
<clipPath id="clip0_2777_114">
<rect width="111" height="42" fill="white"/>
</clipPath>
</defs>
</svg>
